<svg width="172" height="20" viewBox="0 0 172 20" fill="none" xmlns="http://www.w3.org/2000/svg">
<path d="M22.1139 19.5963H28.3609L31.7101 0.427612H25.4631L24.2279 7.29222H18.8122L20.0474 0.427612H13.8003L10.4512 19.5963H16.6982L17.9571 12.4229H23.3728L22.1139 19.5963Z" fill="white"/>
<path d="M35.2493 0.403813L33.3491 11.0689C33.1828 11.9003 33.1116 12.7079 33.1116 13.4679C33.1116 19.1212 38.0522 19.9763 41.0213 19.9763C47.2446 19.9763 49.9287 17.9098 50.9026 12.3278L52.9928 0.380066H46.7458L44.9643 10.4038C44.3942 13.5392 43.9904 15.1782 41.6626 15.1782C40.1425 15.1782 39.4061 14.3706 39.4061 12.7079C39.4061 12.0665 39.5011 11.2827 39.6911 10.3088L41.4964 0.380066H35.2493V0.403813Z" fill="white"/>
<path d="M86.0095 19.5961H92.2566L93.1354 14.6555H96.0808C101.52 14.6555 104.537 11.7102 104.537 6.34199C104.537 2.56527 101.924 0.403748 97.3397 0.403748H89.3587L86.0095 19.5961ZM95.7482 9.92869H93.943L94.7744 5.41563H96.4608C97.8385 5.41563 98.5748 6.10447 98.5748 7.36337C98.5748 8.95482 97.506 9.92869 95.7482 9.92869Z" fill="white"/>
<path d="M116.675 0C109.881 0 105.82 4.3943 105.82 11.7815C105.82 16.9121 109.05 20 114.466 20C121.259 20 125.321 15.6057 125.321 8.21853C125.345 3.06413 122.114 0 116.675 0ZM114.846 15.0356C113.231 15.0356 112.28 13.8717 112.28 11.924C112.28 11.1876 112.352 10.5463 112.494 9.80998C112.969 7.29216 113.777 4.98812 116.318 4.98812C117.934 4.98812 118.884 6.15202 118.884 8.09977C118.884 8.83611 118.812 9.47744 118.67 10.2138C118.195 12.7078 117.387 15.0356 114.846 15.0356Z" fill="white"/>
<path d="M147.055 19.5963H153.302L155.772 5.55826H160.475L161.378 0.427612H145.392L144.489 5.55826H149.477L147.055 19.5963Z" fill="white"/>
<path d="M136.698 7.50594C134.727 6.88836 133.919 6.62708 133.919 5.70071C133.919 5.08314 134.323 4.34679 135.511 4.34679C136.39 4.34679 137.126 4.84561 137.411 5.58195L142.922 4.08551C142.28 1.37767 139.953 0 135.938 0C128.385 0 127.791 5.05938 127.791 6.60332C127.791 9.73872 129.454 11.6627 133.064 12.6603C134.014 12.9216 135.107 13.2066 135.107 14.2518C135.107 15.0831 134.489 15.6057 133.42 15.6057C132.447 15.6057 131.401 15.0356 131.045 14.038L125.606 15.5107C126.2 18.3611 128.884 19.9763 133.088 19.9763C136.295 19.9763 141.663 19.1211 141.663 13.3254C141.686 10.4276 140.048 8.52732 136.698 7.50594Z" fill="white"/>
<path d="M6.95962 19.5963L10.3325 0.427612H0V19.5963H6.95962Z" fill="white"/>
<path d="M164.062 0.427612L160.713 19.5963H171.045V0.427612H164.062Z" fill="white"/>
<path d="M60.4512 13.9429H65.7006L66.5557 9.12109H61.3063L61.9001 5.55814H69.2398L70.1424 0.403748H56.5557L53.2065 19.5962H59.4536L60.4512 13.9429Z" fill="white"/>
<path d="M76.8171 13.9429H82.0903L82.9454 9.12109H77.696L78.2898 5.55814H85.6295L86.5321 0.403748H72.9454L69.5962 19.5962H75.8432L76.8171 13.9429Z" fill="white"/>
</svg>
