<svg width="44" height="20" viewBox="0 0 44 20" fill="none" xmlns="http://www.w3.org/2000/svg">
<path d="M14.278 18.5561L14.2958 18.5204L14.3136 18.5561C14.5275 18.9126 14.6879 19.1978 14.9553 19.2335C15.2049 19.18 15.2583 18.9126 15.3296 18.6452C15.3296 18.6096 15.3475 18.5917 15.3475 18.5561C15.2049 18.5026 15.0979 18.3957 15.0444 18.3422C15.0266 18.3957 15.0266 18.4491 15.0266 18.4848C15.0088 18.6274 14.991 18.6987 14.9375 18.6987C14.9197 18.6987 14.9197 18.6987 14.9018 18.6809C14.7414 18.5739 14.5453 18.1461 14.5275 18.1283V18.1105V18.0926C14.6345 17.8966 14.7414 17.6827 14.8484 17.4866C14.9553 17.2549 15.0623 17.0588 15.1336 16.9518L14.7236 16.7379C14.6879 16.9162 14.5988 17.1657 14.5275 17.3796C14.4919 17.4866 14.4562 17.5757 14.4384 17.647L14.4206 17.7361L14.4027 17.647C14.3136 17.3262 14.2423 16.5418 14.2245 16.5062V16.4884H14.884L15.2405 16.5062V16.1675L14.8662 16.1853H14.2067V15.6506H13.8145C13.8145 15.704 13.8323 15.8467 13.8502 15.9358L13.868 16.1675H12.638L12.1033 16.1853V16.524L12.6024 16.5062H13.8323V16.524C13.8858 17.0053 14.0284 17.8609 14.1354 18.1639V18.1818V18.1996C13.9393 18.5561 13.458 18.9483 13.3154 19.0552C13.3867 19.0909 13.5115 19.1622 13.6541 19.3048C13.7432 19.1978 14.0997 18.8235 14.278 18.5561Z" fill="white"/>
<path d="M13.761 18.5204V18.1996C13.3332 18.36 12.5667 18.4848 12.0498 18.5204C12.0676 18.5917 12.1389 18.8056 12.1924 18.9482L13.761 18.5204Z" fill="white"/>
<path d="M13.6364 16.8627L13.2799 16.8806H12.7274L12.3708 16.8627L12.3887 17.1836V17.7183L12.3708 18.0749L12.7452 18.057H13.2799L13.6186 18.0749L13.6008 17.6649V17.1836L13.6364 16.8627ZM13.2978 17.7718H12.7274V17.2014H13.2978V17.7718Z" fill="white"/>
<path d="M14.4563 15.811L14.7059 16.114L15.0089 15.9358L14.7415 15.6506L14.4563 15.811Z" fill="white"/>
<path d="M15.8289 19.9109L15.811 19.394V15.6863L15.8289 15.1872L15.3119 15.2228H12.0855L11.5508 15.205L11.5686 15.7754V19.4474L11.5508 20H11.9608V19.7148H15.4367V19.9109H15.8289ZM11.9608 19.3583V19.3405V15.5615H15.4367V19.3583H11.9608Z" fill="white"/>
<path d="M21.3189 18.0036C21.4258 18.7522 22.0676 19.4118 22.3884 19.5366C22.4775 19.287 22.638 19.1266 22.7271 19.0553C21.6932 18.6275 21.6219 17.7719 21.6219 17.7719V17.754L21.6397 17.7362C21.8893 17.5401 22.1745 17.3797 22.2993 17.3262L21.8893 16.9875C21.4971 17.344 20.8911 17.7719 20.8733 17.7719L20.8376 17.8075L20.8198 17.7719C20.6415 17.4153 20.285 17.148 20.2672 17.148L20.2137 17.1123L20.2672 17.0767C20.3741 17.0054 20.6594 16.7202 20.6594 16.7202L20.6772 16.7023H21.5684L21.8893 16.7202V16.328L21.5863 16.3458H19.4829L19.0729 16.328V16.7202L19.4294 16.7023H20.1068L20.0355 16.7736C19.7146 17.1123 19.0907 17.3975 18.2886 17.6114C18.4312 17.7184 18.5025 17.8966 18.5381 17.9679C19.0373 17.8075 19.8929 17.344 19.9107 17.344H19.9285H19.9463C20.0533 17.3797 20.1424 17.5045 20.1602 17.5045L20.1781 17.5401L20.1246 17.5223C19.5542 18.1284 18.6094 18.3957 18.3064 18.4849C18.4312 18.5918 18.5025 18.7701 18.5381 18.8414C19.2512 18.6096 20.3028 17.8253 20.3207 17.8075L20.3563 17.7897L20.3741 17.8253C20.392 17.8432 20.4811 17.9501 20.4811 18.0214V18.0392L20.4633 18.0571C20.0889 18.4849 19.3938 19.0731 18.1995 19.3405C18.3421 19.4831 18.4312 19.6613 18.4668 19.7505C19.8394 19.2514 20.5524 18.467 20.5524 18.467L20.6059 18.3957L20.6237 18.4849C20.6594 18.8235 20.6237 19.0731 20.4811 19.2335C20.3028 19.4296 20.0355 19.4296 19.8929 19.4296C19.9998 19.6257 20.0711 19.8396 20.0889 19.9287C20.2315 19.8931 20.7485 19.7326 20.8733 19.5009C21.0515 19.18 21.105 18.6631 20.998 18.1997V18.164L21.3189 17.9501V18.0036Z" fill="white"/>
<path d="M18.3245 15.5437L18.3423 15.8645V16.3993L18.3245 16.7023H18.7701V15.9358H22.1747V16.6488H22.6025L22.5847 16.2923V15.8645L22.6025 15.5437L22.2282 15.5615H20.7665V15.5258C20.7309 15.3298 20.6418 15.098 20.6239 15.0089L20.1426 15.098C20.2139 15.2941 20.2496 15.508 20.2496 15.5258V15.5793H18.6988L18.3245 15.5437Z" fill="white"/>
<path d="M26.7201 19.1979C26.7201 19.3762 26.7201 19.5366 26.827 19.6614C26.9874 19.8218 27.3618 19.8753 28.0213 19.8396C29.2156 19.7861 29.2513 19.697 29.4473 19.1444C29.4652 19.1088 29.4652 19.0731 29.483 19.0375C29.2869 18.9483 29.1443 18.8414 29.073 18.7879C28.966 19.4475 28.6452 19.4475 28.057 19.4653H27.9857C27.95 19.4653 27.8965 19.4653 27.8609 19.4653C27.7896 19.4653 27.7361 19.4653 27.6826 19.4653C27.3439 19.4653 27.13 19.3762 27.13 18.9127V17.2371L27.6826 17.0054V18.4492L27.6648 18.9305H28.0926L28.0748 18.4492V16.8806L28.7165 16.6667V17.6828C28.6808 17.9858 28.5917 18.0749 28.2887 18.0749C28.3956 18.2353 28.4313 18.4314 28.4491 18.5205C28.5739 18.5027 29.0552 18.4314 29.0908 18.0571C29.1087 17.861 29.1265 16.2924 29.1265 16.0607C29.0552 16.0785 28.8769 16.1676 28.7521 16.2211L28.0748 16.4885V15.615L28.0926 15.0803H27.6648L27.6826 15.615V16.6132L27.13 16.7915V16.2211L27.1479 15.7933H26.6844L26.7022 16.2211V16.9876H26.6666C26.4883 17.041 26.2744 17.0945 26.1853 17.1123L26.2923 17.5402C26.3636 17.5045 26.5062 17.451 26.6309 17.3975L26.6844 17.3619V19.1088C26.7201 19.1444 26.7201 19.1801 26.7201 19.1979Z" fill="white"/>
<path d="M26.2744 18.9305V18.4849L25.7397 18.7344V16.9875H25.9001C26.007 16.9875 26.1675 17.0054 26.2388 17.0054V16.5597C26.1675 16.5597 26.007 16.5775 25.9179 16.5775H25.7397V15.7041C25.7397 15.615 25.7575 15.4189 25.7575 15.3298H25.3297C25.3297 15.4011 25.3475 15.5793 25.3475 15.7041V16.5954H25.1871C25.0266 16.5954 24.9375 16.5954 24.8127 16.5775V17.0054C24.884 17.0054 25.0623 16.9875 25.1871 16.9875H25.3653V18.8414L25.3475 18.8592C25.2049 18.9305 24.991 18.984 24.8306 19.0018C24.8662 19.0909 24.9553 19.3048 24.991 19.5722C25.0979 19.4474 25.5079 19.2157 26.2744 18.9305Z" fill="white"/>
<path d="M32.9947 19.0196C32.9947 18.8413 32.9768 18.6274 32.9768 18.5383L32.3351 18.8413V17.4688H32.5847L32.8342 17.4866V17.041L32.5669 17.0588H32.3351V15.8467H32.6916L32.9055 15.8645V15.4367L32.6738 15.4545H31.7112L31.4082 15.4367V15.8645L31.7291 15.8467H31.9786V17.0588H31.6934L31.426 17.0232V17.4688L31.6756 17.451H31.9786V18.9305H31.9608C31.6399 19.0731 31.3904 19.1265 31.3191 19.1265L31.4439 19.6613C32.2282 19.3048 32.8877 19.0552 32.9947 19.0196Z" fill="white"/>
<path d="M35.918 19.8752V19.4474L35.508 19.4653H34.5811V18.8235H35.2585L35.6328 18.8414V18.4314L35.2406 18.4492H34.5811V17.8432H35.2228L35.6506 17.861L35.6328 17.5223V15.7041L35.6506 15.2585L35.205 15.2763H33.6007L33.1907 15.2585L33.2086 15.7576V17.4866L33.1907 17.8788L33.6185 17.861H34.2246V18.467H33.6185L33.262 18.4492V18.8414L33.6364 18.8235H34.2246V19.4653H33.1907L32.7986 19.4474V19.8752L33.1907 19.8574H35.4546L35.918 19.8752ZM34.5989 15.6328H35.2585V16.3815H34.5989V15.6328ZM34.5989 16.7202H35.2585V17.4866H34.5989V16.7202ZM34.2246 17.4866H33.6007V16.7202H34.2246V17.4866ZM34.2246 16.3637H33.6007V15.615H34.2246V16.3637Z" fill="white"/>
<path d="M0 0H8.98395V12.8699H0V0ZM7.6827 1.30125H1.30125V11.5686H7.6827V1.30125Z" fill="#FFCC00"/>
<path d="M14.8841 5.77542H14.3315C13.6007 4.74156 12.8699 3.70769 12.139 2.54905V5.77542H11.5151V1.26562H12.0677C12.7986 2.29949 13.5294 3.31553 14.2424 4.47418H14.2602V1.26562H14.8841V5.77542Z" fill="white"/>
<path d="M16.3457 3.99289C16.5239 3.40466 16.7022 2.85208 16.8626 2.15689H16.8804C17.0587 2.85208 17.2191 3.40466 17.3795 3.99289H16.3457ZM16.6487 1.26562L15.0979 5.7576H15.7574L16.1496 4.52765H17.5043L17.8608 5.7576H18.7164L17.2904 1.26562H16.6487Z" fill="white"/>
<path d="M19.4475 5.77542V1.87168H18.271V1.26562H21.4082V1.87168H20.214V5.77542H19.4475Z" fill="white"/>
<path d="M22.4242 1.26562H21.6577V5.7576H22.4242V1.26562Z" fill="white"/>
<path d="M24.795 5.20503C23.9929 5.20503 23.7077 4.31376 23.7077 3.45815C23.7077 2.62036 24.0285 1.83605 24.795 1.83605C25.5615 1.83605 25.8823 2.62036 25.8823 3.45815C25.8823 4.31376 25.5971 5.20503 24.795 5.20503ZM24.795 5.84674C25.9715 5.84674 26.7023 4.79505 26.7023 3.45815C26.7023 2.19255 25.9002 1.19434 24.795 1.19434C23.6898 1.19434 22.8877 2.19255 22.8877 3.45815C22.8877 4.79505 23.6185 5.84674 24.795 5.84674Z" fill="white"/>
<path d="M30.5348 5.77542H29.9822C29.2513 4.74156 28.5205 3.70769 27.7897 2.54905V5.77542H27.1658V1.26562H27.7184C28.4492 2.29949 29.18 3.31553 29.893 4.47418H29.9109V1.26562H30.5348V5.77542Z" fill="white"/>
<path d="M32.0141 3.99289C32.1924 3.40466 32.3706 2.85208 32.5311 2.15689H32.5489C32.7271 2.85208 32.8876 3.40466 33.0658 3.99289H32.0141ZM32.2993 1.26562L30.7485 5.7576H31.4259L31.8181 4.52765H33.1728L33.5293 5.7576H34.3849L32.9589 1.26562H32.2993Z" fill="white"/>
<path d="M34.5989 1.26562H35.3654V5.16936H36.8983V5.77542H34.5989V1.26562Z" fill="white"/>
<path d="M14.4029 9.5365V11.3903C13.9929 11.5508 13.5651 11.6577 13.1195 11.6577C11.8004 11.6577 10.9626 10.6238 10.9626 9.30477C10.9626 8.07483 11.8004 7.00531 13.1552 7.00531C13.5651 7.00531 13.9929 7.16574 14.2425 7.34399L13.9929 7.87875C13.779 7.75397 13.4582 7.64702 13.173 7.64702C12.353 7.64702 11.7826 8.28873 11.7826 9.3226C11.7826 10.3921 12.4243 11.016 13.0839 11.016C13.2978 11.016 13.4582 10.9982 13.6186 10.909V9.51868H14.4029V9.5365Z" fill="white"/>
<path d="M17.1656 7.70048H15.8822V8.93043H17.1478V9.53649H15.8822V10.9982H17.3974V11.5864H15.1157V7.09442H17.1656V7.70048Z" fill="white"/>
<path d="M19.5365 11.0339C18.7343 11.0339 18.4491 10.1426 18.4491 9.28701C18.4491 8.46704 18.77 7.6649 19.5365 7.6649C20.3029 7.6649 20.6238 8.44922 20.6238 9.28701C20.6238 10.1426 20.3386 11.0339 19.5365 11.0339ZM19.5365 11.6756C20.7129 11.6756 21.4438 10.6239 21.4438 9.28701C21.4438 8.02141 20.6416 7.02319 19.5365 7.02319C18.4313 7.02319 17.6292 8.02141 17.6292 9.28701C17.6292 10.6239 18.36 11.6756 19.5365 11.6756Z" fill="white"/>
<path d="M25.1515 9.5365V11.3903C24.7415 11.5508 24.3137 11.6577 23.868 11.6577C22.549 11.6577 21.7112 10.6238 21.7112 9.30477C21.7112 8.07483 22.549 7.00531 23.9037 7.00531C24.3137 7.00531 24.7415 7.16574 24.991 7.34399L24.7415 7.87875C24.5276 7.75397 24.2067 7.64702 23.9215 7.64702C23.1016 7.64702 22.5311 8.28873 22.5311 9.3226C22.5311 10.3921 23.1729 11.016 23.8324 11.016C24.0463 11.016 24.2067 10.9982 24.3672 10.909V9.51868H25.1515V9.5365Z" fill="white"/>
<path d="M26.631 7.70055H26.9697C27.4331 7.70055 27.6827 7.96792 27.6827 8.43138C27.6827 9.03744 27.3083 9.30482 26.9518 9.32265C26.8805 9.32265 26.7023 9.34047 26.631 9.34047V7.70055ZM28.5918 11.5865L27.6827 9.7148C28.1818 9.44742 28.467 8.91267 28.467 8.37791C28.467 7.50447 27.9322 7.07666 27.0766 7.07666H25.8823V11.5686H26.6488V9.87523H26.9875H27.0053L27.7362 11.5686H28.5918V11.5865Z" fill="white"/>
<path d="M29.8574 9.82169C30.0356 9.23346 30.2139 8.68087 30.3743 7.98569H30.3921C30.5704 8.68087 30.7308 9.23346 30.8913 9.82169H29.8574ZM30.1604 7.09442L28.6096 11.5864H29.287L29.6791 10.3565H31.0339L31.3904 11.5864H32.246L30.82 7.09442H30.1604Z" fill="white"/>
<path d="M33.2443 11.5864H32.4778V7.09442H33.6721C34.5277 7.09442 35.0625 7.52223 35.0625 8.39567C35.0625 9.16216 34.5099 9.89299 33.583 9.89299H33.2264V9.34041C33.2621 9.34041 33.476 9.32258 33.5651 9.32258C33.9395 9.30476 34.296 9.03738 34.296 8.43132C34.296 7.96786 34.0464 7.70048 33.583 7.70048H33.2264V11.5864H33.2443Z" fill="white"/>
<path d="M38.6453 11.5864H37.8788V9.42953H36.2745V11.5864H35.5081V7.09442H36.2745V8.82348H37.8788V7.11225H38.6453V11.5864Z" fill="white"/>
<path d="M40.1603 7.09442H39.3938V11.5864H40.1603V7.09442Z" fill="white"/>
<path d="M43.6184 7.9144C43.4402 7.80745 43.1193 7.66485 42.8341 7.66485C42.0498 7.66485 41.4794 8.30656 41.4794 9.34042C41.4794 10.4099 42.1033 11.0338 42.8519 11.0338C43.155 11.0338 43.4223 10.9447 43.6184 10.8021L43.8323 11.3547C43.6006 11.5151 43.1906 11.6577 42.8163 11.6577C41.4972 11.6577 40.6594 10.6238 40.6594 9.30477C40.6594 8.07483 41.4794 7.00531 42.8341 7.00531C43.2263 7.00531 43.6006 7.16574 43.868 7.34399L43.6184 7.9144Z" fill="white"/>
</svg>
